<?xml version="1.0" encoding="UTF-8" standalone="no"?>
<!-- Created with Inkscape (http://www.inkscape.org/) -->

<svg
   xmlns:dc="http://purl.org/dc/elements/1.1/"
   xmlns:cc="http://creativecommons.org/ns#"
   xmlns:rdf="http://www.w3.org/1999/02/22-rdf-syntax-ns#"
   xmlns:svg="http://www.w3.org/2000/svg"
   xmlns="http://www.w3.org/2000/svg"
   xmlns:xlink="http://www.w3.org/1999/xlink"
   xmlns:sodipodi="http://sodipodi.sourceforge.net/DTD/sodipodi-0.dtd"
   xmlns:inkscape="http://www.inkscape.org/namespaces/inkscape"
   id="svg2"
   sodipodi:docname="elf-in-tar.svg"
   inkscape:export-filename="/home/esoriano/prof/sysfatal.github.io/figs/elf-in-tar.png"
   viewBox="0 0 701.11 600.55"
   sodipodi:version="0.32"
   inkscape:export-xdpi="29.909512"
   version="1.0"
   inkscape:output_extension="org.inkscape.output.svg.inkscape"
   inkscape:export-ydpi="29.909512"
   inkscape:version="0.92.3 (2405546, 2018-03-11)">
  <defs
     id="defs8">
    <radialGradient
       inkscape:collect="always"
       xlink:href="#linearGradient9547"
       id="radialGradient9563"
       cx="230.84642"
       cy="247.11958"
       fx="230.84642"
       fy="247.11958"
       r="2.14538"
       gradientTransform="matrix(-0.16751966,1.5956268,-1.0784895,-0.40558318,715.61304,255.80933)"
       gradientUnits="userSpaceOnUse" />
    <linearGradient
       inkscape:collect="always"
       id="linearGradient9547">
      <stop
         style="stop-color:#ffffaf;stop-opacity:1"
         offset="0"
         id="stop9549" />
      <stop
         id="stop9555"
         offset="0.77062207"
         style="stop-color:#ffff3d;stop-opacity:1;" />
      <stop
         style="stop-color:#8f8f00;stop-opacity:1"
         offset="1"
         id="stop9551" />
    </linearGradient>
    <radialGradient
       inkscape:collect="always"
       xlink:href="#linearGradient9547"
       id="radialGradient9553"
       cx="162.97997"
       cy="54.469898"
       fx="162.97997"
       fy="54.469898"
       r="4.9193511"
       gradientTransform="matrix(2.0628386,1.679227,-1.2301128,1.7753949,216.95888,92.18024)"
       gradientUnits="userSpaceOnUse" />
    <linearGradient
       inkscape:collect="always"
       xlink:href="#linearGradient9537"
       id="linearGradient9543"
       x1="168.41795"
       y1="11.080041"
       x2="21.673887"
       y2="125.28439"
       gradientUnits="userSpaceOnUse"
       gradientTransform="matrix(1.0867028,-0.22594117,0.24428003,1.1749067,296.14125,436.9681)" />
    <linearGradient
       inkscape:collect="always"
       id="linearGradient9537">
      <stop
         style="stop-color:#4f4f4f;stop-opacity:1"
         offset="0"
         id="stop9539" />
      <stop
         style="stop-color:#383838;stop-opacity:1"
         offset="1"
         id="stop9541" />
    </linearGradient>
  </defs>
  <sodipodi:namedview
     id="base"
     bordercolor="#666666"
     inkscape:pageshadow="2"
     inkscape:window-width="2809"
     pagecolor="#ffffff"
     inkscape:zoom="0.98994949"
     inkscape:window-x="20"
     showgrid="false"
     borderopacity="1.0"
     inkscape:current-layer="layer1"
     inkscape:cx="-331.57875"
     inkscape:cy="145.42002"
     inkscape:window-y="27"
     inkscape:window-height="1724"
     inkscape:pageopacity="0.0"
     inkscape:document-units="px"
     inkscape:window-maximized="0" />
  <g
     id="layer1"
     inkscape:label="Layer 1"
     inkscape:groupmode="layer"
     transform="translate(-16.475 -175.88)">
    <path
       id="path1291"
       sodipodi:r2="265.71429"
       style="fill-rule:evenodd;fill:#000000"
       sodipodi:type="star"
       d="M 388.91234,441.85466 C 367.4174,480.03409 287.79514,361.18045 248.69602,385.81288 209.5969,410.44531 267.82795,625.10445 227.35653,638.81466 186.88511,652.52486 174.7113,490.41225 132.03687,490.04129 89.362451,489.67034 80.672699,657.58444 38.252874,653.32193 -4.1669512,649.05941 38.009325,458.38024 0.88494442,437.93933 -36.239436,417.49842 -154.93259,558.52733 -190.33588,533.5978 c -35.4033,-24.92953 107.182261,-156.61551 77.69584,-191.67598 -29.48642,-35.06047 -146.70799,70.43632 -168.66569,31.88489 -21.95769,-38.55142 100.77517,-61.40639 95.61095,-104.34108 -5.16422,-42.93469 -157.1357,-90.34232 -147.97006,-133.92812 9.16563,-43.585804 150.27597,21.83528 167.16552,-20.70765 16.88954,-42.54293 -86.50832,-160.699394 -58.61132,-194.958338 27.89701,-34.258942 92.58824,132.105127 129.797266,106.615384 C -58.104345,0.99716326 -152.92108,-166.33919 -113.74933,-187.4209 -74.577581,-208.50262 9.7539002,-11.937679 56.106598,-15.426001 102.4593,-18.914322 110.22517,-235.51924 154.37277,-223.47381 c 44.1476,12.04542 1.10766,212.840296 41.49101,227.7222521 40.38334,14.8819559 81.33366,-178.5210721 120.48552,-154.7076321 39.15186,23.81345 -47.85947,145.982424 -24.47388,184.566186 23.3856,38.583763 125.08101,-25.8104859 145.92599,10.983563 20.84498,36.79405 -102.04478,74.698141 -94.24448,117.707321 7.80029,43.00917 151.95708,72.35254 143.49056,113.9644 -8.46652,41.61186 -119.44184,22.83282 -129.735,65.60804 -10.29315,42.77523 53.09479,61.3049 31.59985,99.48434 z"
       sodipodi:r1="428.57144"
       inkscape:flatsided="false"
       sodipodi:arg1="0.64350111"
       sodipodi:arg2="0.9053005"
       transform="matrix(.82384 0 .17685 .68449 267.39 329.17)"
       inkscape:randomized="-0.097"
       sodipodi:cy="215.21933"
       sodipodi:cx="82.85714"
       inkscape:rounded="0.24"
       sodipodi:sides="12" />
    <path
       style="opacity:1;fill:url(#linearGradient9543);fill-opacity:1;stroke:#000000;stroke-width:2.07739592;stroke-linecap:round;stroke-linejoin:bevel;stroke-miterlimit:4;stroke-dasharray:none;stroke-dashoffset:0;stroke-opacity:1"
       d="m 383.72763,428.69726 c -27.48809,5.78309 -52.33094,16.84571 -60.4977,46.40707 -0.9776,3.52703 -1.64602,6.88533 -2.05418,10.12014 -0.009,0.002 -0.0169,0.004 -0.0255,0.005 -12.37276,2.57247 -63.65158,-14.21481 -63.65158,-14.21481 0,0 60.77139,62.44343 73.14415,59.87096 0.26867,-0.0559 0.53372,-0.122 0.798,-0.18747 3.16698,6.64395 6.74922,13.65784 10.38438,21.50023 13.68273,29.51878 76.5766,31.48098 76.5766,31.48098 0,0 45.36833,-19.38706 48.37256,-53.09555 1.33339,-14.96127 3.49319,-28.36582 3.8007,-40.74027 13.87244,-24.0678 31.10912,-69.59856 31.10912,-69.59856 0,0 -23.65273,20.99876 -40.29173,31.99343 -1.10757,-1.70853 -2.32248,-3.40697 -3.68308,-5.09459 -19.27321,-23.85621 -46.46628,-24.09995 -73.98174,-18.44687 z"
       id="path7026"
       inkscape:connector-curvature="0" />
    <path
       inkscape:connector-curvature="0"
       id="path4162"
       d="m 438.43091,542.33658 c 1.85107,8.90303 -10.75356,18.98114 -28.18178,22.60472 -16.87172,3.50787 -32.12052,-0.37233 -34.64566,-8.79623 z"
       style="fill:#000000;fill-opacity:1;fill-rule:nonzero;stroke:none;stroke-width:1.15410888" />
    <path
       inkscape:connector-curvature="0"
       id="path4164"
       d="m 438.43091,542.33658 c 1.85107,8.90303 -10.75356,18.98114 -28.18178,22.60472 -16.87172,3.50787 -32.12052,-0.37233 -34.64566,-8.79623"
       style="fill:none;stroke:#000000;stroke-width:0.77674383px;stroke-linecap:butt;stroke-linejoin:miter;stroke-miterlimit:4;stroke-dasharray:none;stroke-opacity:1" />
    <path
       inkscape:connector-curvature="0"
       id="path4166"
       d="m 414.5643,559.02731 c 3.7622,-0.51094 6.96611,-0.29585 8.89524,1.54027 -2.28092,0.81321 -4.43823,1.60073 -7.00691,2.27038 -0.94804,-1.76893 -2.92947,-2.30611 -5.49414,-2.85757 1.01012,-0.4134 2.21912,-0.80038 3.60581,-0.95308 z m -3.60581,0.95308 c -0.0484,0.078 -0.10997,0.0908 -0.10997,0.0908 2.50286,0.56431 7.13577,2.38067 5.44584,2.93541 -4.87086,1.69066 -10.32294,2.75645 -16.03373,3.19818 -0.81674,0.10189 -1.64715,0.13907 -2.47762,0.17613 0.1201,-3.14351 3.66985,-5.91539 8.49619,-6.57989 1.63385,-0.20422 3.2117,-0.0576 4.67946,0.17957 z"
       style="fill:#ff0000;fill-opacity:1;fill-rule:nonzero;stroke:#000000;stroke-width:0.97092974px;stroke-linecap:butt;stroke-linejoin:miter;stroke-miterlimit:4;stroke-dasharray:none;stroke-opacity:1" />
    <path
       inkscape:connector-curvature="0"
       id="path4168"
       d="m 432.5054,495.23096 c -14.36134,3.79946 -29.25037,-5.1721 -29.25037,-5.1721 0,0 7.07472,-20.86013 21.43612,-24.65952 14.37487,-3.73451 30.32656,1.35537 30.32656,1.35537 0,0 -8.15093,24.67676 -22.51231,28.47625 z"
       style="fill:#ffffff;fill-opacity:1;fill-rule:nonzero;stroke:#000000;stroke-width:1.03565836px;stroke-linecap:butt;stroke-linejoin:miter;stroke-miterlimit:4;stroke-dasharray:none;stroke-opacity:1" />
    <path
       inkscape:connector-curvature="0"
       id="path4170"
       d="m 426.9765,492.51618 c -5.07551,1.32656 -10.15833,-1.41327 -11.40534,-6.17054 -1.23364,-4.6925 1.80881,-9.59604 6.88433,-10.92252 5.01372,-1.31371 10.0965,1.42605 11.33004,6.11857 1.24716,4.75752 -1.7953,9.66088 -6.80903,10.97449 z"
       style="fill:#d40000;fill-opacity:1;fill-rule:nonzero;stroke:#000000;stroke-width:0.90620112px;stroke-linecap:butt;stroke-linejoin:miter;stroke-miterlimit:4;stroke-dasharray:none;stroke-opacity:1" />
    <path
       inkscape:connector-curvature="0"
       id="path4174"
       d="m 365.1357,508.89912 c 14.73953,-1.97987 24.98249,-15.97333 24.98249,-15.97333 0,0 -14.52099,-16.50566 -29.3224,-14.51286 -14.72601,2.04481 -27.49095,12.90191 -27.49095,12.90191 0,0 17.04298,19.64196 31.83086,17.58428 z"
       style="fill:#ffffff;fill-opacity:1;fill-rule:nonzero;stroke:#000000;stroke-width:1.03565836px;stroke-linecap:butt;stroke-linejoin:miter;stroke-miterlimit:4;stroke-dasharray:none;stroke-opacity:1" />
    <path
       inkscape:connector-curvature="0"
       id="path4176"
       d="m 369.06821,504.55615 c 5.13532,-0.72874 8.78007,-5.21523 8.1028,-10.02319 -0.62904,-4.88601 -5.3872,-8.23549 -10.52254,-7.50675 -5.19713,0.7416 -8.7801,5.21514 -8.16457,10.03618 0.67732,4.80821 5.43554,8.15749 10.58431,7.49376 z"
       style="fill:#ff0000;fill-opacity:1;fill-rule:nonzero;stroke:#000000;stroke-width:0.90620112px;stroke-linecap:butt;stroke-linejoin:miter;stroke-miterlimit:4;stroke-dasharray:none;stroke-opacity:1" />
    <path
       inkscape:connector-curvature="0"
       id="path4222"
       d="m 310.12514,463.86421 c 25.91178,100.43952 26.14921,101.2715 26.14921,101.2715 z"
       style="fill:#483737;fill-opacity:1;fill-rule:nonzero;stroke:none;stroke-width:1.15410888" />
    <path
       style="display:inline;opacity:1;fill:#ffffff;fill-opacity:1;stroke:#000000;stroke-width:1.47449172;stroke-linecap:round;stroke-linejoin:bevel;stroke-miterlimit:4;stroke-dasharray:none;stroke-dashoffset:0;stroke-opacity:1"
       d="m 384.68448,416.07139 c -19.60945,4.0156 -31.5748,11.91062 -54.07293,25.57022 -22.4981,13.6596 4.60401,134.3549 7.9379,147.61928 4.33852,-4.99228 -6.97548,-88.01299 -14.23667,-108.4492 l 23.02405,5.34211 31.40763,-23.77854 c 0,0 -18.54966,18.97697 11.54705,84.77384 -15.84649,-60.99492 3.61234,-85.22554 3.61234,-85.22554 l 23.32981,11.70657 8.40662,-18.08883 20.35904,10.61472 11.69891,-13.16042 c 0,0 28.06061,64.57371 32.65009,107.42182 4.41047,-75.39699 -42.90379,-156.53575 -105.66384,-144.34603 z"
       id="path4340"
       inkscape:connector-curvature="0"
       sodipodi:nodetypes="czcccccccccccc" />
    <path
       inkscape:connector-curvature="0"
       id="path4172"
       d="m 413.25943,519.57088 c 0.45939,2.20952 -1.51853,4.79018 -5.12057,6.6916 -3.66383,1.91429 -8.42262,2.90371 -12.54586,2.60846 -4.06118,-0.30812 -6.90383,-1.88652 -7.36322,-4.09603"
       style="fill:none;stroke:#000000;stroke-width:1.22984445px;stroke-linecap:round;stroke-linejoin:bevel;stroke-miterlimit:4;stroke-dasharray:none;stroke-opacity:1" />
    <ellipse
       style="opacity:1;fill:#000000;fill-opacity:1;stroke:none;stroke-width:1.63768053;stroke-linecap:round;stroke-linejoin:bevel;stroke-miterlimit:4;stroke-dasharray:none;stroke-dashoffset:0;stroke-opacity:1"
       id="path9534"
       cx="293.32654"
       cy="596.25354"
       rx="0.62246376"
       ry="0.55618763"
       transform="rotate(-11.745283)" />
    <path
       d="m 367.51388,348.05264 c -16.42993,4.80579 -33.37658,13.71064 -45.34905,22.1471 -11.97091,8.43786 -43.22708,29.74231 -50.40763,36.38084 -6.96262,6.43546 -15.05649,8.9161 -18.76722,16.64407 -1.43078,2.97868 8.90311,11.36136 10.94869,12.19555 5.30798,2.15032 14.16636,-2.42644 18.16575,-2.84051 12.98005,-1.35592 26.30061,-3.49192 39.21699,4.11975 -2.48133,2.35703 1.43491,-0.22735 -4.03314,19.73134 -1.92528,7.0462 -6.20862,25.27797 -1.59628,28.52947 4.58669,3.23069 7.77847,-10.24351 12.36038,-8.39129 l -4e-5,0.0145 -5e-5,0.0145 -0.008,0.015 0.0157,-0.001 c 0.0157,0.007 0.0476,0.005 0.0795,-0.004 0.008,0.007 0.0157,-0.001 0.0236,0.006 l 0.0943,0.0398 0.0334,-0.0671 c 2.20679,-0.60953 19.51066,-8.2578 35.07382,-6.11749 8.77461,1.20399 22.94633,-3.78303 31.08778,-6.41886 12.9205,-4.17643 31.00632,-8.2172 42.43251,-8.88127 8.42052,-0.48825 16.14558,-5.17838 24.24965,-6.02549 4.78438,-0.49773 0.71574,-14.45826 0.65826,-15.95126 -0.29501,-7.15825 -9.74385,-17.78793 -14.51049,-27.39019 -4.7587,-9.59789 -12.84436,-21.69785 -21.84856,-31.07529 -8.99625,-9.37777 -21.16235,-21.50015 -29.84642,-25.02463 -8.68405,-3.52478 -10.2429,-6.86608 -28.07265,-1.65044 z"
       style="fill:#ff7f2a;fill-rule:evenodd;stroke:#000000;stroke-width:0.46388474px"
       id="path1309"
       inkscape:connector-curvature="0" />
    <path
       d="m 327.63162,384.13104 c -10.65449,2.79705 -20.51454,34.27744 -33.70621,40.22529 -8.62816,3.88879 -32.03231,10.22931 -29.98674,11.0635 5.30799,2.15032 14.16636,-2.42643 18.16577,-2.84049 12.98004,-1.35594 26.3006,-3.49193 39.21698,4.11973 -2.48134,2.35703 1.43491,-0.22736 -4.03314,19.73135 -1.92528,7.04619 -6.20863,25.27796 -1.59628,28.52946 4.58669,3.23069 7.77846,-10.24351 12.36038,-8.39129 l -5e-5,0.0145 -5e-5,0.0145 -0.008,0.015 0.0157,-0.001 c 0.0157,0.007 0.0476,0.005 0.0795,-0.004 0.007,0.007 0.0157,-0.001 0.0236,0.006 l 0.0942,0.0399 0.0335,-0.067 c 2.20681,-0.60953 19.51067,-8.25779 35.07384,-6.11749 8.77461,1.20398 22.9463,-3.78303 31.08777,-6.41886 12.92051,-4.17643 31.00631,-8.2172 42.4325,-8.88126 8.42052,-0.48819 16.14559,-5.17839 24.24968,-6.0255 4.78437,-0.49773 -29.73932,3.64929 -15.77378,-6.04873 6.19072,-4.29819 -61.20716,10.96657 -86.27482,-14.96041 -24.81986,-25.67503 -20.55119,-46.86849 -31.45352,-44.00425 z"
       style="opacity:0.10112;fill:#0e0000;fill-rule:evenodd;stroke-width:0.7944845"
       id="path5882"
       inkscape:connector-curvature="0" />
    <path
       d="m 254.16221,419.8588 c 2.03071,1.17035 15.477,16.69571 17.142,15.50321 0.24306,-1.78994 -1.35502,-2.42387 -2.48641,-2.58114 1.56701,-1.83763 1.90093,-3.7043 -0.73615,-3.75529 -2.91603,-0.35305 -6.10423,-0.55623 -2.8883,-3.57838 1.49239,-1.68135 0.0171,-4.49924 -0.83673,-5.92707 -2.31205,-1.06455 -4.02247,-3.09289 -4.9456,-4.48209"
       style="opacity:0.26966002;fill:#000000;fill-rule:evenodd;stroke:#000000;stroke-width:0.46202683"
       id="path5878"
       inkscape:connector-curvature="0" />
    <path
       d="m 441.32218,446.72132 c -4.29597,-1.22947 -9.68323,-2.63246 -13.51957,-2.26164 -2.57124,-1.9284 -4.6537,0.66738 -6.95172,1.43434 -0.28197,-3.91274 -6.72632,1.93514 -9.50908,2.08715 -1.9974,1.11874 -0.53358,-3.07072 -4.10227,-1.35424 -4.39695,0.5619 -7.12222,0.95224 -10.41387,2.38733 -0.88715,4.30413 -7.98224,7.00591 -8.9126,2.36147 -3.87777,1.69285 -11.08249,4.96087 -10.99955,0.12116 -6.25469,4.62913 -6.54555,8.58753 -12.59186,10.94669 0.62856,-3.81195 -12.84743,-5.28758 -14.79222,-1.23132 -3.74654,1.52692 0.89715,-5.01211 -4.51202,-3.04412 -5.99963,-1.36299 -2.77006,9.67812 -14.97372,5.61846 -6.854,0.0803 -3.28612,9.05033 -7.90533,13.05717 -1.31006,4.07366 -6.40259,-1.12741 -8.53231,-0.73992 0.33142,6.34706 1.87249,4.12389 0.20493,8.51878 -1.07534,5.46447 -2.38884,8.23257 4.08082,9.0946 2.17266,-2.70894 -0.065,-1.50727 0.28161,3.30002 3.77683,-1.15617 8.85026,-7.10761 8.19984,-1.17935 2.63368,-3.66906 10.74,-5.85846 10.73401,-9.69512 4.06737,0.22502 8.53943,4.21909 12.11768,-1.00647 3.55269,-3.90417 8.56444,-5.85566 8.5385,-2.95136 4.11312,3.43269 4.55287,2.68499 8.94763,1.5834 -1.01079,-4.60463 10.22933,-0.7457 4.35381,-5.12645 2.43198,-2.28932 8.91023,-3.83486 12.61069,-3.22987 3.18669,4.27357 13.21602,4.21457 14.91818,-1.54582 0.43965,-4.50439 8.1007,-6.35434 10.87542,-3.36937 5.05285,-4.19989 12.7187,1.28094 17.06452,-1.96319 -3.71532,-4.40481 5.61191,-7.77555 7.248,-4.3494 3.4362,-1.81312 6.74423,-7.96845 10.34663,-3.80697 4.30843,-1.45542 9.56751,-3.45364 13.20959,-4.93248 2.60632,3.9913 9.73141,-0.52078 6.8133,-5.36716 -1.55533,-3.48056 5.36823,1.52778 3.55896,-2.89782 -2.06286,-4.75789 -4.96021,-11.36313 -8.72538,-10.98067 -5.08876,-0.96313 -8.20523,2.33209 -8.53381,6.83915 0.0195,-3.27605 -6.10984,0.16616 -9.31127,1.48809 l -1.75023,0.45205 -2.0404,-1.25747"
       style="opacity:0.29404069;fill:#000000;fill-rule:evenodd;stroke:#000000;stroke-width:0.33472371px"
       id="path5003"
       inkscape:connector-curvature="0" />
    <path
       d="m 444.15316,447.80008 c -4.296,-1.22948 -8.29682,-1.26031 -12.13315,-0.88948 -2.57919,-1.92807 -5.71187,-1.12691 -8.00979,-0.36769 -0.28196,-3.91274 -5.66836,3.73672 -8.4511,3.88873 -1.99739,1.11876 -0.53358,-3.0707 -4.10227,-1.35422 -4.4049,0.56222 -9.42839,-1.72392 -12.71985,-0.29613 -0.88732,4.31142 -7.98243,7.01321 -8.91279,2.36875 -3.87776,1.69287 -8.77632,7.63704 -8.70134,2.79766 -7.18559,0.007 -10.43412,6.63358 -16.47248,8.99241 0.62041,-3.80431 -8.95886,-3.33363 -10.90364,0.72263 -3.74654,1.52693 -0.80368,-7.13713 -6.21284,-5.16915 -6.00759,-1.36265 -6.121,9.69324 -13.2729,7.74349 -6.854,0.0803 -6.05105,6.30571 -10.67821,10.31286 -1.31006,4.07366 -3.63766,1.61723 -5.75944,2.0044 3.36617,4.39742 -10.7772,4.03639 -6.74792,10.87182 -1.06978,5.46423 0.2565,9.30443 6.72298,10.16659 2.17247,-2.70164 4.23773,-4.93199 4.59231,-0.12503 3.77684,-1.15616 8.85024,-7.1076 8.19189,-1.179 2.64161,-3.66941 10.74796,-5.85879 10.74196,-9.69547 4.06736,0.22503 8.53942,4.21909 12.10971,-1.00612 3.5527,-3.90419 4.04726,-0.86099 4.02943,2.03563 4.10518,3.43305 9.0699,-2.30235 13.45671,-3.4036 -1.00279,-4.60497 10.23729,-0.74602 4.36176,-5.12677 2.43198,-2.28934 8.91023,-3.83486 12.61069,-3.22989 3.1945,2.71223 13.20808,4.2149 14.91817,-1.54582 0.43967,-4.50437 8.10073,-6.35432 10.86748,-3.36903 5.06081,-4.20024 12.72683,1.2733 17.07248,-1.96352 -3.71532,-4.40481 5.60395,-7.77521 7.24801,-4.3494 3.43619,-1.81312 6.74423,-7.96846 10.34661,-3.80696 4.30048,-1.4551 9.55956,-3.45334 13.20961,-4.93249 2.6063,3.9913 9.73139,-0.52078 6.81329,-5.36717 -1.55532,-3.48055 5.36822,1.52779 3.55896,-2.8978 0.17038,-5.15701 -1.73383,-13.04354 -8.72539,-10.98069 -5.08876,-0.96312 -8.20522,2.3321 -8.5338,6.83916 0.0195,-3.27604 -8.09366,-1.75746 -11.2951,-0.43552 l -1.05396,0.54708 -0.75285,0.57104"
       style="fill:#ffffff;fill-rule:evenodd;stroke:#000000;stroke-width:0.33472371px"
       id="path1307"
       inkscape:connector-curvature="0" />
    <path
       d="m 319.48477,447.14083 c 2.38056,-21.88026 14.62569,-32.30411 12.95337,-49.65398 -0.98667,-10.25523 -11.28663,-2.02317 -8.2332,7.50872"
       style="fill:none;stroke:#000000;stroke-width:0.46388474px"
       id="path3126"
       inkscape:connector-curvature="0" />
    <path
       d="m 323.55544,476.68966 c -1.30987,4.06637 -3.63748,1.60994 -5.75925,1.99711 3.36616,4.39742 -10.77819,4.04372 -6.74872,10.87185 -1.06979,5.46424 0.25649,9.30444 6.72378,10.16657 2.17246,-2.70166 4.23772,-4.93199 4.58437,-0.12471 3.77683,-1.15616 8.85819,-7.10793 8.19982,-1.17934 2.64162,-3.6694 10.74001,-5.85846 10.74195,-9.69545 4.06738,0.22502 8.35721,3.57744 11.93563,-1.65541 3.55269,-3.90419 4.22135,-0.21172 4.20335,2.69222 4.10535,3.42573 9.07008,-2.30965 13.45688,-3.41091 -1.00279,-4.60497 5.17125,-1.03902 4.36176,-5.12678 -0.53559,-2.67674 19.59241,-2.71008 16.75833,-5.23301 -8.45542,-7.53429 -22.28443,4.92266 -24.22042,4.24443 -1.94393,-0.67793 -4.11745,-0.12812 -1.35408,-1.39539 2.76337,-1.26727 -3.93728,0.90748 -9.43118,-0.6734 -5.4941,-1.57363 -9.60553,0.88025 -10.0853,5.4009 -4.11242,-2.20726 -4.48309,0.51439 -11.02661,2.44194 4.28988,-5.73654 -7.28279,-1.17111 -7.28279,-1.17111 0,0 2.1576,-6.18779 -1.45546,-5.22808 2.01205,-3.26394 -0.101,-4.16098 -0.101,-4.16098 0,0 1.12629,-2.77491 -3.50106,1.23955 z"
       style="opacity:0.11235998;fill:#000000;fill-rule:evenodd;stroke-width:0.7944845"
       id="path3249"
       inkscape:connector-curvature="0" />
    <path
       id="path3199"
       style="fill:#ffffff;stroke:#000000;stroke-width:0.58205384"
       inkscape:connector-curvature="0"
       d="m 239.95067,430.42604 -2.0955,0.59813 -8.26394,-1.04369 -2.39979,7.80959 3.38156,-5.08952 8.53679,-0.3128 -0.43032,5.93811 -8.00861,0.85279 -2.12575,12.46425 4.34016,-10.48778 6.94804,-1.28214 0.93897,4.51617 -5.83333,3.97464 -3.69731,8.24212 2.01093,9.00454 1.09528,-6.07636 -0.67995,-3.27033 3.09013,-6.49111 4.46746,-3.2033 2.73962,3.16704 -6.24955,7.31044 4.22794,4.31972 1.71949,7.60286 1.33692,-1.57764 -1.35995,-6.5409 -1.77973,-2.5543 -0.58281,-2.80313 4.64321,-5.02697 11.43727,-2.37798 -6.66436,-20.70904 z" />
    <path
       style="fill:#ffffff;stroke:#000000;stroke-width:0.58205384"
       d="m 251.91679,411.85286 c -2.20325,1.7159 -5.11074,2.649 -7.0453,4.64922 0.10492,0.19271 -0.12972,0.67594 -0.69138,0.81177 0.21085,-0.29274 0.44547,-0.5575 0.69138,-0.81177 -0.0753,-0.13838 -0.32187,-0.13121 -0.77047,0.2847 -1.99874,0.98386 -3.94795,2.64795 -3.26226,4.87787 0.15058,1.15212 -1.46391,2.21625 0.46885,2.41174 -0.29989,1.86526 -3.32962,1.90984 -3.37301,3.5529 0.40684,1.14497 0.39672,2.3345 -0.10196,3.39239 l -8.24089,-1.04244 -2.40022,7.81122 3.38097,-5.08931 6.13661,-0.22718 c -0.0422,0.0365 -0.0748,0.0775 -0.11877,0.11335 -1.61328,1.41647 -1.01418,3.38899 -0.99845,5.03689 -0.2726,0.37655 -0.49956,0.74254 -0.65367,1.10081 l -4.26745,0.45389 -2.12629,12.46385 4.34102,-10.48692 2.35784,-0.43518 c 0.0275,0.0297 0.0436,0.0603 0.0736,0.09 0.17374,1.88207 1.85335,3.06723 1.81618,5.03829 0.17511,0.25211 0.39833,0.4322 0.64511,0.57937 l -2.8389,1.93583 -3.69762,8.24139 2.01075,9.00591 1.09535,-6.07701 -0.67998,-3.27049 3.0894,-6.49161 3.02098,-2.16524 c 0.0701,0.08 0.14263,0.15545 0.20293,0.2523 1.72745,0.063 2.13758,1.83882 3.28527,2.6953 l -5.55204,6.49124 4.22927,4.32109 1.71917,7.60358 1.33732,-1.57813 -1.35997,-6.54099 -1.77994,-2.55577 -0.58264,-2.80229 4.00195,-4.33252 c 1.5035,0.14454 3.12775,-0.0984 4.41189,0.16252 1.27887,0.91707 2.75688,1.52579 4.39113,1.73512 2.03199,1.11923 2.80994,-1.91136 4.0832,-2.93439 0.10267,-1.51423 1.2878,-1.68013 2.04724,-0.4424 1.77254,1.04976 3.6878,-0.95589 5.00544,-2.03912 0.0513,-0.0521 0.10572,-0.10083 0.15742,-0.15249 l 4.61578,2.03319 0.58264,2.80229 -0.6137,3.05343 1.35996,6.54098 1.85357,0.91473 -1.45212,-7.65911 2.15444,-5.64836 -7.00977,-3.41497 c 0.82461,-0.71906 1.67538,-1.41189 2.52605,-2.10064 0.51904,-0.54651 0.95538,-1.14672 1.31918,-1.78268 l 1.14312,0.24597 5.42092,4.72218 0.67998,3.2705 3.42686,5.13677 -1.74368,-9.06142 -6.67619,-6.08452 -1.36556,-0.25958 c 0.4258,-1.33132 0.6054,-2.72545 0.58433,-4.05533 0.24121,-1.71694 -1.48455,-1.74118 -2.6163,-1.88386 0.0873,-0.23067 0.20051,-0.49113 0.30889,-0.7442 l 2.09905,-0.48667 8.15939,7.88792 -6.91814,-10.58339 -2.92465,0.91695 c -0.18175,-0.35344 -0.61375,-0.58637 -1.46492,-0.60046 -1.50565,-0.30221 -4.899,-1.71355 -2.89119,-3.43088 0.35164,-0.38278 0.50647,-0.7881 0.53528,-1.2007 l 4.25359,-1.66492 5.12935,3.31988 -5.31287,-6.20756 -4.60672,2.73437 c -0.40803,-0.72425 -0.949,-1.41175 -1.30764,-1.98594 -1.51411,-1.06487 -2.37123,-2.60098 -3.29658,-3.93319 -1.85057,-0.19526 -3.56527,-1.1591 -3.9931,-2.95037 -0.45951,-1.41722 -0.12809,-0.368 0.0108,0.32576 l -0.15318,-0.39434 c -0.72449,-1.20633 -3.07321,-1.44888 -3.34944,-2.48562 0.55704,-1.24059 -1.5358,-0.27081 -1.92657,-0.92348 z"
       id="path3260"
       inkscape:connector-curvature="0" />
    <path
       d="m 241.29302,434.9012 c -0.90359,-1.01288 2.75662,-0.66885 2.48044,-1.70778 0.55767,-1.23405 -0.0713,-1.259 -0.46287,-1.91382 -2.48317,1.93402 -1.79914,-2.43461 -3.66869,0.1596 0.96504,-0.22965 0.88776,-3.40691 -0.18544,-2.41407 -1.99857,0.9802 -1.47862,-3.03879 -1.52201,-1.39571 0.6258,1.76116 0.28343,3.63548 -1.34477,4.95775 -1.61327,1.41647 -1.01365,3.39026 -0.99792,5.03818 -0.82209,1.1356 -1.29501,2.17646 -0.27498,3.18452 0.17375,1.88206 1.85307,3.06701 1.8159,5.03806 0.69433,0.99969 2.14055,0.874 2.84884,2.01172 2.15135,0.0784 2.23914,2.83942 4.2833,3.13385 1.75017,0.45983 3.84659,0.008 5.42639,0.32908 1.27887,0.91706 2.75767,1.52676 4.39192,1.73609 2.032,1.11922 2.80905,-1.91108 4.08231,-2.93411 0.10268,-1.51424 1.28831,-1.68018 2.04775,-0.4424 1.77254,1.04974 3.6884,-0.95556 5.00604,-2.0388 1.29415,-1.31568 -4.85411,0.39852 -3.41997,-0.7698 2.0491,-2.15673 -4.57665,3.07865 -4.61952,0.35228 0.24102,-1.70962 -7.24178,2.47445 -5.60155,-0.5917 0.55051,-1.45257 0.90274,-0.43868 -1.73451,-0.48236 -1.50564,-0.30221 -5.62138,-2.69169 -3.61341,-4.41633 1.49073,-1.61563 -0.786,0.28059 -1.64126,-1.09168 -1.51422,-1.06048 -0.54438,-0.48072 -1.46972,-1.81367 -1.85036,-0.20036 -1.01597,-0.92799 -1.4437,-2.71926 -0.85747,2.15831 -0.52134,-1.9041 -0.38262,-1.2096 z"
       style="opacity:0.09550602;fill:#000000;fill-rule:evenodd;stroke-width:0.7944845"
       id="path4128"
       inkscape:connector-curvature="0" />
    <path
       d="m 320.89572,437.20548 c 0,0 8.09134,-18.20459 10.10815,-25.41653 1.88597,-6.74768 1.92166,-16.93012 -0.60572,-18.70936 -2.51943,-1.77956 -5.98796,1.62292 -6.44351,5.50136 -0.45555,3.87772 -0.77429,4.86331 0.76372,12.16034 0.69498,3.30826 0.1041,11.24527 -1.05549,15.02091 -1.15183,3.78262 -3.68841,12.39334 -2.76715,11.44328 z"
       style="fill:#000000;fill-opacity:0.22346;fill-rule:evenodd;stroke-width:0.7944845"
       id="path5880"
       inkscape:connector-curvature="0" />
    <g
       id="g9459"
       transform="matrix(-0.74209162,0.28654197,0.30803364,0.66232783,230.72673,337.66591)">
      <ellipse
         ry="1.9708841"
         rx="1.5079391"
         transform="matrix(0.98382633,-0.17912499,0.20782573,0.97816587,0,0)"
         cy="152.75145"
         cx="-4.8692036"
         id="path9451"
         style="opacity:1;fill:#ff0000;fill-opacity:1;stroke:#000000;stroke-width:1.30766582;stroke-linecap:round;stroke-linejoin:bevel;stroke-miterlimit:4;stroke-dasharray:none;stroke-dashoffset:0;stroke-opacity:1" />
      <rect
         transform="matrix(0.91630872,0.40047263,-0.10553666,0.99441541,0,0)"
         y="131.19034"
         x="42.478008"
         height="0.48868847"
         width="4.0347366"
         id="rect9453"
         style="opacity:1;fill:#808080;fill-opacity:1;stroke:none;stroke-width:1.32399631;stroke-linecap:round;stroke-linejoin:bevel;stroke-miterlimit:4;stroke-dasharray:none;stroke-dashoffset:0;stroke-opacity:1" />
    </g>
    <g
       transform="matrix(0.79480639,-0.03300126,-0.01850297,0.7302195,233.98084,336.98934)"
       id="g9463">
      <ellipse
         style="opacity:1;fill:#ff0000;fill-opacity:1;stroke:#000000;stroke-width:1.30766582;stroke-linecap:round;stroke-linejoin:bevel;stroke-miterlimit:4;stroke-dasharray:none;stroke-dashoffset:0;stroke-opacity:1"
         id="ellipse9465"
         cx="-4.8692036"
         cy="152.75145"
         transform="matrix(0.98382633,-0.17912499,0.20782573,0.97816587,0,0)"
         rx="1.5079391"
         ry="1.9708841" />
      <rect
         style="opacity:1;fill:#808080;fill-opacity:1;stroke:none;stroke-width:1.32399631;stroke-linecap:round;stroke-linejoin:bevel;stroke-miterlimit:4;stroke-dasharray:none;stroke-dashoffset:0;stroke-opacity:1"
         id="rect9467"
         width="4.0347366"
         height="0.48868847"
         x="42.478008"
         y="131.19034"
         transform="matrix(0.91630872,0.40047263,-0.10553666,0.99441541,0,0)" />
    </g>
    <g
       id="g9469"
       transform="matrix(0.79480639,-0.03300126,-0.01850297,0.7302195,229.5877,337.90274)">
      <ellipse
         ry="1.9708841"
         rx="1.5079391"
         transform="matrix(0.98382633,-0.17912499,0.20782573,0.97816587,0,0)"
         cy="152.75145"
         cx="-4.8692036"
         id="ellipse9471"
         style="opacity:1;fill:#ff0000;fill-opacity:1;stroke:#000000;stroke-width:1.30766582;stroke-linecap:round;stroke-linejoin:bevel;stroke-miterlimit:4;stroke-dasharray:none;stroke-dashoffset:0;stroke-opacity:1" />
      <rect
         transform="matrix(0.91630872,0.40047263,-0.10553666,0.99441541,0,0)"
         y="131.19034"
         x="42.478008"
         height="0.48868847"
         width="4.0347366"
         id="rect9473"
         style="opacity:1;fill:#808080;fill-opacity:1;stroke:none;stroke-width:1.32399631;stroke-linecap:round;stroke-linejoin:bevel;stroke-miterlimit:4;stroke-dasharray:none;stroke-dashoffset:0;stroke-opacity:1" />
    </g>
    <g
       transform="matrix(-0.74209162,0.28654197,0.30803364,0.66232783,234.03185,331.51951)"
       id="g9475">
      <ellipse
         style="opacity:1;fill:#ff0000;fill-opacity:1;stroke:#000000;stroke-width:1.30766582;stroke-linecap:round;stroke-linejoin:bevel;stroke-miterlimit:4;stroke-dasharray:none;stroke-dashoffset:0;stroke-opacity:1"
         id="ellipse9477"
         cx="-4.8692036"
         cy="152.75145"
         transform="matrix(0.98382633,-0.17912499,0.20782573,0.97816587,0,0)"
         rx="1.5079391"
         ry="1.9708841" />
      <rect
         style="opacity:1;fill:#808080;fill-opacity:1;stroke:none;stroke-width:1.32399631;stroke-linecap:round;stroke-linejoin:bevel;stroke-miterlimit:4;stroke-dasharray:none;stroke-dashoffset:0;stroke-opacity:1"
         id="rect9479"
         width="4.0347366"
         height="0.48868847"
         x="42.478008"
         y="131.19034"
         transform="matrix(0.91630872,0.40047263,-0.10553666,0.99441541,0,0)" />
    </g>
    <g
       id="g9481"
       transform="matrix(-0.74209162,0.28654197,0.30803364,0.66232783,229.63871,332.4329)">
      <ellipse
         ry="1.9708841"
         rx="1.5079391"
         transform="matrix(0.98382633,-0.17912499,0.20782573,0.97816587,0,0)"
         cy="152.75145"
         cx="-4.8692036"
         id="ellipse9483"
         style="opacity:1;fill:#ff0000;fill-opacity:1;stroke:#000000;stroke-width:1.30766582;stroke-linecap:round;stroke-linejoin:bevel;stroke-miterlimit:4;stroke-dasharray:none;stroke-dashoffset:0;stroke-opacity:1" />
      <rect
         transform="matrix(0.91630872,0.40047263,-0.10553666,0.99441541,0,0)"
         y="131.19034"
         x="42.478008"
         height="0.48868847"
         width="4.0347366"
         id="rect9485"
         style="opacity:1;fill:#808080;fill-opacity:1;stroke:none;stroke-width:1.32399631;stroke-linecap:round;stroke-linejoin:bevel;stroke-miterlimit:4;stroke-dasharray:none;stroke-dashoffset:0;stroke-opacity:1" />
    </g>
    <g
       transform="matrix(0.79480639,-0.03300126,-0.01850297,0.7302195,232.89282,331.75633)"
       id="g9487">
      <ellipse
         style="opacity:1;fill:#ff0000;fill-opacity:1;stroke:#000000;stroke-width:1.30766582;stroke-linecap:round;stroke-linejoin:bevel;stroke-miterlimit:4;stroke-dasharray:none;stroke-dashoffset:0;stroke-opacity:1"
         id="ellipse9489"
         cx="-4.8692036"
         cy="152.75145"
         transform="matrix(0.98382633,-0.17912499,0.20782573,0.97816587,0,0)"
         rx="1.5079391"
         ry="1.9708841" />
      <rect
         style="opacity:1;fill:#808080;fill-opacity:1;stroke:none;stroke-width:1.32399631;stroke-linecap:round;stroke-linejoin:bevel;stroke-miterlimit:4;stroke-dasharray:none;stroke-dashoffset:0;stroke-opacity:1"
         id="rect9491"
         width="4.0347366"
         height="0.48868847"
         x="42.478008"
         y="131.19034"
         transform="matrix(0.91630872,0.40047263,-0.10553666,0.99441541,0,0)" />
    </g>
    <g
       id="g9493"
       transform="matrix(-0.74209162,0.28654197,0.30803364,0.66232783,235.11987,336.75252)">
      <ellipse
         ry="1.9708841"
         rx="1.5079391"
         transform="matrix(0.98382633,-0.17912499,0.20782573,0.97816587,0,0)"
         cy="152.75145"
         cx="-4.8692036"
         id="ellipse9495"
         style="opacity:1;fill:#ff0000;fill-opacity:1;stroke:#000000;stroke-width:1.30766582;stroke-linecap:round;stroke-linejoin:bevel;stroke-miterlimit:4;stroke-dasharray:none;stroke-dashoffset:0;stroke-opacity:1" />
      <rect
         transform="matrix(0.91630872,0.40047263,-0.10553666,0.99441541,0,0)"
         y="131.19034"
         x="42.478008"
         height="0.48868847"
         width="4.0347366"
         id="rect9497"
         style="opacity:1;fill:#808080;fill-opacity:1;stroke:none;stroke-width:1.32399631;stroke-linecap:round;stroke-linejoin:bevel;stroke-miterlimit:4;stroke-dasharray:none;stroke-dashoffset:0;stroke-opacity:1" />
    </g>
    <g
       transform="matrix(0.79480639,-0.03300126,-0.01850297,0.7302195,228.49968,332.66973)"
       id="g9499">
      <ellipse
         style="opacity:1;fill:#ff0000;fill-opacity:1;stroke:#000000;stroke-width:1.30766582;stroke-linecap:round;stroke-linejoin:bevel;stroke-miterlimit:4;stroke-dasharray:none;stroke-dashoffset:0;stroke-opacity:1"
         id="ellipse9501"
         cx="-4.8692036"
         cy="152.75145"
         transform="matrix(0.98382633,-0.17912499,0.20782573,0.97816587,0,0)"
         rx="1.5079391"
         ry="1.9708841" />
      <rect
         style="opacity:1;fill:#808080;fill-opacity:1;stroke:none;stroke-width:1.32399631;stroke-linecap:round;stroke-linejoin:bevel;stroke-miterlimit:4;stroke-dasharray:none;stroke-dashoffset:0;stroke-opacity:1"
         id="rect9503"
         width="4.0347366"
         height="0.48868847"
         x="42.478008"
         y="131.19034"
         transform="matrix(0.91630872,0.40047263,-0.10553666,0.99441541,0,0)" />
    </g>
    <ellipse
       style="opacity:1;fill:#000000;fill-opacity:1;stroke:#000000;stroke-width:1.3142122;stroke-linecap:round;stroke-linejoin:bevel;stroke-miterlimit:4;stroke-dasharray:none;stroke-dashoffset:0;stroke-opacity:1"
       id="path9517"
       cx="376.26535"
       cy="550.47601"
       rx="1.0138692"
       ry="0.71647555"
       transform="rotate(-11.745283)" />
    <path
       style="opacity:1;fill:url(#radialGradient9553);fill-opacity:1;stroke:#1a1a1a;stroke-width:0.83335751;stroke-linecap:round;stroke-linejoin:bevel;stroke-miterlimit:4;stroke-dasharray:none;stroke-dashoffset:0;stroke-opacity:1"
       d="m 482.64058,458.5622 a 8.9150623,5.2425919 78.254717 0 0 -3.23606,3.77536 l 1.15284,0.74182 a 6.130939,3.14696 78.254717 0 1 1.58667,-1.56995 6.130939,3.14696 78.254717 0 1 4.32993,5.36227 6.130939,3.14696 78.254717 0 1 -1.83417,6.64152 6.130939,3.14696 78.254717 0 1 -3.75937,-3.47001 l -0.55983,1.37561 a 8.9150623,5.2425919 78.254717 0 0 5.94936,4.59946 8.9150623,5.2425919 78.254717 0 0 3.31767,-9.79395 8.9150623,5.2425919 78.254717 0 0 -6.94704,-7.66213 z"
       id="path9505"
       inkscape:connector-curvature="0" />
    <path
       inkscape:connector-curvature="0"
       style="opacity:1;fill:url(#radialGradient9563);fill-opacity:1;stroke:#1a1a1a;stroke-width:0.26282415;stroke-linecap:round;stroke-linejoin:bevel;stroke-miterlimit:4;stroke-dasharray:none;stroke-dashoffset:0;stroke-opacity:1"
       d="m 409.36799,522.84325 c -0.46551,0.0976 -0.83738,0.53143 -1.02058,1.19069 l 0.36357,0.23395 c 0.11673,-0.27733 0.29217,-0.45092 0.50042,-0.49514 0.53672,-0.11185 1.14818,0.6454 1.36557,1.69116 0.2172,1.04552 -0.0418,1.98328 -0.57848,2.0946 -0.41594,0.0855 -0.79101,-0.22354 -1.08397,-0.96287 l -0.32824,0.24043 c 0.46114,1.01225 1.25687,1.65065 1.92634,1.51248 0.8938,-0.18605 1.3622,-1.56881 1.04632,-3.08881 -0.316,-1.52028 -1.2969,-2.60215 -2.19095,-2.41649 z"
       id="path9505-4"
       sodipodi:nodetypes="ccccccccccc" />
  </g>
  <metadata
     id="metadata5">
    <rdf:RDF>
      <cc:Work>
        <dc:format>image/svg+xml</dc:format>
        <dc:type
           rdf:resource="http://purl.org/dc/dcmitype/StillImage" />
        <cc:license
           rdf:resource="http://creativecommons.org/publicdomain/zero/1.0/" />
        <dc:publisher>
          <cc:Agent
             rdf:about="http://openclipart.org/">
            <dc:title>Openclipart</dc:title>
          </cc:Agent>
        </dc:publisher>
        <dc:title />
        <dc:date>2009-04-02T08:54:40</dc:date>
        <dc:description>Ink spot by ff77. From old OCAL website.</dc:description>
        <dc:source>https://openclipart.org/detail/23767/ink-by-anonymous-23767</dc:source>
        <dc:creator>
          <cc:Agent>
            <dc:title>Anonymous</dc:title>
          </cc:Agent>
        </dc:creator>
        <dc:subject>
          <rdf:Bag>
            <rdf:li>black</rdf:li>
            <rdf:li>drop</rdf:li>
            <rdf:li>ink</rdf:li>
            <rdf:li>splash</rdf:li>
            <rdf:li>spot</rdf:li>
            <rdf:li>symbol</rdf:li>
          </rdf:Bag>
        </dc:subject>
      </cc:Work>
      <cc:License
         rdf:about="http://creativecommons.org/licenses/publicdomain/">
        <cc:permits
           rdf:resource="http://creativecommons.org/ns#Reproduction" />
        <cc:permits
           rdf:resource="http://creativecommons.org/ns#Distribution" />
        <cc:permits
           rdf:resource="http://creativecommons.org/ns#DerivativeWorks" />
      </cc:License>
    </rdf:RDF>
  </metadata>
</svg>
